# xmcd
#
# Track frame offsets:
#	182
#	22907
#	40930
#	56377
#	69200
#	86930
#	101250
#	126815
#	146590
#	168717
#	190945
#	193697
#
# Disc length: 2860 seconds
#
# Revision: 0
# Processed by: cddbd v1.4PL0 Copyright (c) Steve Scherf et al.
# Submitted via: audiograbber 1.82.02
#
DISCID=a00b2a0c
DTITLE=Blanchart - Bow
DYEAR=1992
DGENRE=
TTITLE0=Vertigo Blues
TTITLE1=Sister Kate
TTITLE2=Lonely House
TTITLE3=I won't come running back
TTITLE4=Building An Empire
TTITLE5=The shaman is dead
TTITLE6=Devil in town
TTITLE7=Separate ways
TTITLE8=Money and applause
TTITLE9=L'Amour ça va
TTITLE10=It was june
TTITLE11=Letter to Alex
EXTD=
EXTT0=
EXTT1=
EXTT2=
EXTT3=
EXTT4=
EXTT5=
EXTT6=
EXTT7=
EXTT8=
EXTT9=
EXTT10=
EXTT11=
PLAYORDER=
